<svg width="24" height="24" viewBox="0 0 24 24" fill="none" xmlns="http://www.w3.org/2000/svg">
<path fill-rule="evenodd" clip-rule="evenodd" d="M10.5 3L4 21H5.7L7.28182 16.5H13V15H7.80909L11.5 4.5L14.4879 13H16.1111L12.5 3H10.5Z" fill="white"/>
<path fill-rule="evenodd" clip-rule="evenodd" d="M20.976 22.356V18.225H22.137V17.044H20.976V13.876H19.588V22.356H20.976ZM18.771 14.831V14.731H14.665V15.894H17.3605C17.2433 16.7518 16.9454 17.4837 16.4554 18.1202C15.9436 18.785 15.2186 19.3503 14.2601 19.8451L14.1562 19.8988L14.9414 20.9704L15.0171 20.9322C16.4134 20.2273 17.354 19.3348 17.9445 18.2982C18.5347 17.2624 18.771 16.0899 18.771 14.831Z" fill="white"/>
</svg>
